<svg xmlns="http://www.w3.org/2000/svg" width="512" height="512" viewBox="0 0 512 512">
		<g id="wappa-logo" fill="#eaeae0">
			<g id="logo-afrique" fill-rule="evenodd" clip-rule="evenodd"><path d="M240.6 200c-1.7.5 0 2 0 3 0 1.2-1 .6-1 1.4.3 1.3 1.4 3 3 3.6 1.5.6 3-.6 4.2.6.7.5.4 1.8 1 2 0 .2 5.7 2 5.3 2.2 1 0 2-.8 2.2-1.2 0-.6-1-1.5-.6-2 .4-1 2-2.2 4-2 .8.2 1 1.3 1.6 1.6 0 0 1.4-.3 2 0 .6 0 .7.8 1 1 2 .4 5.6 1 6.6.8 1-.2 1.5-1.4 2.3-1.5 2-.3 2.2 1.2 4.6.6-1.7.5 1.5-.4 1.2-.5 2 1 .5 5 .6 6.5-1.7 0-2.4-4-3.3-3.8-.8.2 1.3 3 .7 2-.5-.8 2 3.6 2 4 1.6 2.8 2.3 2 3.4 4.7.5 1-.6.5.4 2 .4.6 1.5.7 2 1.4 1.2 1.5.4 4 1.5 6 .3.7 1.7 1 2.3 1.8 1.3 1.8.5 4.2 2.7 5.3.5.3 1.3 0 1.8.3 4 3 6 8 10 7.2.5 0 1-1 2.2-1.2 1-.4 3 0 4.4-.6.8-.3 1.8-1.8 2.4-1 1 1.2-1.7 6.2-2.4 7.5-2.3 4.5-3.5 7.8-7.4 10.7-2.6 2-5.3 3-7 5.7-.4.4-.5 1.3-.7 1.6-.6.5-2.4 1-2.7 1.5-.2.3-2.7 6-2.7 6.3 0 .8 1 1.2 1 1.8.5 1.6-.4 3.7.4 5.2.8 1.7 1.3.8 1.2 3.2-.2 4 1.2 7.4-2.7 9.6-1 .4-2.6.4-3.7 1-1.3 1-4.3 3.4-4.4 4-.7 2 2.4 5 .8 7.8-1 1.6-3.7.6-4.8 2.6-.3.5.3 1.2.3 1.8 0 3-7.4 11.3-10.4 12.5-2.3.8-4.6 0-6.4.3-1 .2-3.2 1.7-4.4 1.5-.3 0-2-.8-2.4-1.2-1-1.2.2-2.4 0-3.6-.3-1.3-1.7-4-2.7-5.6-1-1.6-2.5-2.6-3.2-4.7-.6-2.2-.3-5-1-7.7-1.3-3.5-5.4-5.6-5-10.7l1.3-4.6c.6-1.3 2.2-2 2.5-3.3.3-2-1.2-2.6-1.5-4.3 0-.4.6-1 .6-1.5 0-1.4-1.4-2.5-1.8-3.6-1.3-3-2.4-5-4.2-6.8-.3-.4-1-.5-1.2-1-1.6-2.3 1.5-5 1.2-8.8 0-.8-1.7-3-3-3.3.2 0-3.7 1.2-4.4 1-1.8-1-.8-3.8-3.6-4.3-4.2-.7-6.5 3-10.7 3-1.2 0-3.3-1.2-5.5-1-1.3.3-2.7 1.5-4 1.6-2.4 0-3.5-2-5.2-3.3-1-1-3-1.5-3.8-2.4-.5-.4.2-.6 0-1-.2 0-1 0-1.2-.2-.5-.7 0-1.5-.3-2.2-.5-1.2-1.7-1.3-2.7-2.7-.2-.2.2-1 0-1-.4-.6-.5.2-1.2-.4-.3-.3.2-.8-.2-1.2-.6-.5-2-1-2-1.2-.3-.6.6-1.2.5-2.7 0-1.4-1.3-1-1.2-2 .2-.6 1.3-1.3 1.6-1.8 1.3-2.4 1-3.7 1.2-7 0-.5.7-1.3.6-1.7 0-.6-1.2-1.8-1.2-2.3 0-.6 1.8-3.6 3-4.8.5-.6 1.6-.6 2-1.3 1-1.2.4-2 1-2.7.3-.4 1.3-.2 1.7-.6.8-.7.5-1.7 1-2 .7-.4 1.4 0 2.2-.3 2-1 4-2 4.5-3.2.5-1-.2-2 0-2.7 1.2-3.7 6.7-3 8-7.3 1 1.8 3.7 2.5 5.4 2.3 1.8 0 3.2-1.7 4.8-2 2.3-.5 4.5 0 7.2 0 .7 0 1.8-.7 2.6-.6.7 0 1.2.6 1.8.6.8 0 1.6-.7 2.4-.6.8 0 .8 1.4 1.8.6z"/><path d="M306.4 289.5c1.5 1.2 1.7 4 1.7 6.6-.7 1-.2-.8-1.4-.5.6 1.4 0 2-.5 3.2-1.5 4.5-4 12.7-5.6 14-1 .8-4 1-5-.6-.5-.7-1-4.8-.7-5.8.5-1.8 2.3-2.3 2.4-3.3.5-2-1.6-4.8.4-6.6 1.5-1.4 5-1 6-2 .3-.5 0-2 .6-2.5-.3.2 1.5 0 1.8-.4.8-1-.5-1.5.6-2z"/></g>
			<g id="logo-diaph"><path d="M330.2 237.2c9.5-101.6-18.4-178.3-50.8-236C271.7.3 264 0 256 0 190 0 130 25 84.6 65.8c95 26.4 169 48.2 245.6 171.4z"/><path d="M283.6 186C220.2 120 141 92 73.6 76.6c-39.5 40-65.8 93-72 151.8 79-44 185.6-73.6 282-42.2z"/><path d="M218.3 181.8c-85-2.8-159.8 28.8-218 62-.2 4-.3 8-.3 12.2 0 60 20.7 115.3 55.4 159 22.5-91.5 55.6-163.4 163-233.2z"/><path d="M166.8 230.5C107.5 289 80 361.8 64.5 426c37.7 42.4 89.4 72.2 147.8 82.3-49.8-92-67-161-45.5-277.8z"/><path d="M385.5 477c-123-46-163-95.4-218-185.2-5 82.8 24.3 157.7 56.5 218.2 10.5 1.3 21.2 2 32 2 47.2 0 91.5-12.8 129.5-35z"/><path d="M502.8 324.2C374 374.4 311.3 373.5 209.2 340c53.4 71 122.7 108 185 131.6 52.4-33.7 91.7-86 108.6-147.4z"/><path d="M264.4 348c83.3 15.6 175-10.5 241.5-36.2 4-18 6-36.7 6-55.8 0-42.6-10.4-82.7-28.8-118-62.4 121.3-116.4 163.8-218.8 210z"/><path d="M317.2 313.2c52-30.4 117.5-97.6 159.7-186.6C439 62 373.5 15.6 296.7 3.3c55.3 131.4 58 208.4 20.4 310z"/></g>
		</g>
</svg>