<?xml version="1.0" encoding="utf-8"?>
<!-- Generator: Adobe Illustrator 13.0.0, SVG Export Plug-In . SVG Version: 6.00 Build 14948)  -->
<!DOCTYPE svg PUBLIC "-//W3C//DTD SVG 1.1//EN" "http://www.w3.org/Graphics/SVG/1.1/DTD/svg11.dtd">
<svg version="1.1" xmlns="http://www.w3.org/2000/svg" xmlns:xlink="http://www.w3.org/1999/xlink" x="0px" y="0px" width="512px"
	 height="512px" viewBox="0 0 512 512" enable-background="new 0 0 512 512" xml:space="preserve">
<g id="Calque_1">
</g>
<g id="icons">
	<g>
		<g>
			<path stroke="#333333" stroke-miterlimit="10" d="M431.386,67.997h-41.265v43.99c0,10.888-3.677,21.296-10.353,29.31
				c-7.541,9.053-18.346,14.244-29.645,14.244c-11.289,0-22.089-5.189-29.633-14.238c-6.684-8.017-10.363-18.428-10.363-29.315
				v-43.99H205.537v43.99c0,10.888-3.682,21.3-10.363,29.315c-7.545,9.049-18.346,14.238-29.634,14.238
				c-11.298,0-22.103-5.191-29.645-14.244c-6.676-8.014-10.353-18.422-10.353-29.31v-43.99H86.796
				c-27.567,0-49.909,22.342-49.909,49.892V398.09c0,27.569,22.342,49.91,49.909,49.91h344.59c27.566,0,49.909-22.341,49.909-49.91
				V117.889C481.295,90.339,458.953,67.997,431.386,67.997z M139.101,356.74c0,4.913-3.976,8.889-8.889,8.889H81.328
				c-4.913,0-8.888-3.976-8.888-8.889v-48.885c0-4.896,3.975-8.888,8.888-8.888h48.885c4.913,0,8.889,3.992,8.889,8.888V356.74z
				 M241.315,356.74c0,4.913-3.976,8.889-8.888,8.889h-48.886c-4.912,0-8.888-3.976-8.888-8.889v-48.885
				c0-4.896,3.976-8.888,8.888-8.888h48.886c4.912,0,8.888,3.992,8.888,8.888V356.74z M241.315,254.527
				c0,4.912-3.976,8.888-8.888,8.888h-48.886c-4.912,0-8.888-3.976-8.888-8.888V205.66c0-4.913,3.976-8.889,8.888-8.889h48.886
				c4.912,0,8.888,3.976,8.888,8.889V254.527z M343.529,356.74c0,4.913-3.977,8.889-8.889,8.889h-48.885
				c-4.912,0-8.889-3.976-8.889-8.889v-48.885c0-4.896,3.977-8.888,8.889-8.888h48.885c4.912,0,8.889,3.992,8.889,8.888V356.74z
				 M343.529,254.527c0,4.912-3.977,8.888-8.889,8.888h-48.885c-4.912,0-8.889-3.976-8.889-8.888V205.66
				c0-4.913,3.977-8.889,8.889-8.889h48.885c4.912,0,8.889,3.976,8.889,8.889V254.527z M387.968,365.629
				c-4.912,0-8.888-3.976-8.888-8.889v-48.885c0-4.896,3.976-8.888,8.888-8.888h48.885c4.913,0,8.889,3.992,8.889,8.888
				L387.968,365.629z M445.742,254.527c0,4.912-3.976,8.888-8.889,8.888h-48.885c-4.912,0-8.888-3.976-8.888-8.888V205.66
				c0-4.913,3.976-8.889,8.888-8.889h48.885c4.913,0,8.889,3.976,8.889,8.889V254.527z"/>
		</g>
		<g>
			<path stroke="#333333" stroke-miterlimit="10" d="M183.316,111.987V21.334C183.316,9.548,175.347,0,165.54,0
				c-9.825,0-17.776,9.548-17.776,21.334v90.653c0,11.786,7.951,21.334,17.776,21.334
				C175.347,133.321,183.316,123.773,183.316,111.987z"/>
			<path stroke="#333333" stroke-miterlimit="10" d="M350.125,0c-9.807,0-17.776,9.548-17.776,21.334v90.653
				c0,11.786,7.97,21.334,17.776,21.334c9.826,0,17.777-9.548,17.777-21.334V21.334C367.902,9.548,359.951,0,350.125,0z"/>
		</g>
	</g>
</g>
</svg>
