<svg xmlns="http://www.w3.org/2000/svg" width="512" height="512" viewBox="0 0 512 512"><path d="M431.386 67.997H390.12v43.99c0 10.888-3.676 21.296-10.353 29.31-7.54 9.053-18.346 14.244-29.645 14.244-11.29 0-22.09-5.18-29.633-14.23-6.69-8.01-10.37-18.43-10.37-29.31V68H205.53v43.99c0 10.887-3.68 21.3-10.362 29.314-7.545 9.05-18.346 14.238-29.634 14.238-11.3 0-22.104-5.19-29.646-14.243-6.674-8.02-10.35-18.43-10.35-29.31V68H86.795c-27.567 0-49.91 22.34-49.91 49.89v280.2c0 27.57 22.343 49.91 49.91 49.91h344.59c27.566 0 49.91-22.34 49.91-49.91v-280.2c0-27.55-22.343-49.892-49.91-49.893zM139.1 356.74c0 4.912-3.975 8.89-8.888 8.89H81.328c-4.913 0-8.888-3.978-8.888-8.89v-48.885c0-4.896 3.975-8.89 8.888-8.89h48.885c4.913 0 8.89 3.993 8.89 8.89v48.885h-.003zm102.215 0c0 4.912-3.976 8.89-8.888 8.89H183.54c-4.91 0-8.887-3.978-8.887-8.89v-48.885c0-4.896 3.976-8.89 8.888-8.89h48.89c4.91 0 8.89 3.993 8.89 8.89v48.885zm0-102.213c0 4.913-3.976 8.888-8.888 8.888H183.54c-4.91 0-8.887-3.976-8.887-8.888V205.66c0-4.913 3.976-8.89 8.888-8.89h48.89c4.91 0 8.89 3.977 8.89 8.89v48.867zM343.53 356.74c0 4.912-3.98 8.89-8.89 8.89h-48.886c-4.912 0-8.89-3.978-8.89-8.89v-48.885c0-4.896 3.978-8.89 8.89-8.89h48.885c4.91 0 8.89 3.993 8.89 8.89v48.885zm0-102.213c0 4.913-3.98 8.888-8.89 8.888h-48.886c-4.912 0-8.89-3.976-8.89-8.888V205.66c0-4.913 3.978-8.89 8.89-8.89h48.885c4.91 0 8.89 3.977 8.89 8.89v48.867zm44.438 111.102c-4.912 0-8.888-3.98-8.888-8.9v-48.88c0-4.9 3.976-8.89 8.888-8.89h48.886c4.912 0 8.89 3.99 8.89 8.89l-57.776 57.78zm57.774-111.11c0 4.91-3.977 8.89-8.89 8.89H387.97c-4.912 0-8.888-3.98-8.888-8.89v-48.86c0-4.92 3.976-8.89 8.888-8.89h48.886c4.912 0 8.89 3.97 8.89 8.89v48.86h-.004zM183.316 111.98V21.33c0-11.783-7.97-21.33-17.776-21.33-9.825 0-17.776 9.548-17.776 21.334v90.653c0 11.786 7.95 21.334 17.776 21.334 9.807 0 17.776-9.54 17.776-21.33zM350.126 0c-9.808 0-17.777 9.548-17.777 21.334v90.653c0 11.786 7.97 21.334 17.77 21.334 9.82 0 17.77-9.54 17.77-21.33V21.34C367.9 9.548 359.95 0 350.12 0z"/></svg>