<?xml version="1.0" encoding="utf-8"?>
<!-- Generator: Adobe Illustrator 13.0.0, SVG Export Plug-In . SVG Version: 6.00 Build 14948)  -->
<!DOCTYPE svg PUBLIC "-//W3C//DTD SVG 1.1//EN" "http://www.w3.org/Graphics/SVG/1.1/DTD/svg11.dtd">
<svg version="1.1" xmlns="http://www.w3.org/2000/svg" xmlns:xlink="http://www.w3.org/1999/xlink" x="0px" y="0px" width="512px"
	 height="512px" viewBox="0 0 512 512" enable-background="new 0 0 512 512" xml:space="preserve">
<g id="Calque_1">
</g>
<g id="icons">
	<g>
		<path stroke="#333333" stroke-miterlimit="10" d="M225.241,433.361c-11.373,16.008-33.502,19.77-49.535,8.408l0,0
			c-16.034-11.376-19.781-33.516-8.436-49.524L434.531,15.334c11.373-16.022,33.525-19.81,49.535-8.447l0,0
			c16.034,11.387,19.809,33.54,8.432,49.561L225.241,433.361z"/>
		<path stroke="#333333" stroke-miterlimit="10" d="M221.804,387.353c13.928,13.833,13.981,36.286,0.131,50.226l0,0
			c-13.875,13.913-36.392,13.965-50.292,0.117L23.426,290.947c-13.901-13.861-13.979-36.314-0.106-50.265l0,0
			c13.877-13.901,36.365-13.939,50.268-0.079L221.804,387.353z"/>
	</g>
</g>
</svg>
