<svg xmlns="http://www.w3.org/2000/svg" width="512" height="512" viewBox="0 0 512 512"><path d="M256.616 160.776C153.65 160.776 59.6 212.393 0 295.926 59.066 382.51 153.132 448 256.616 448 363.284 448 457.15 386.793 512 295.393c-57.833-84-152.2-134.617-255.383-134.617zm0 249.408c-80.083 0-191.05-66.85-191.05-113.533 0-31.55 85.65-98.06 191.05-98.06 81.133 0 191.2 65.95 191.2 98.548 0 46.206-82.25 113.057-191.2 113.057zm2.25-191.998c47.616 0 86.2 38.59 86.2 86.198 0 47.617-38.584 86.208-86.2 86.208-47.6 0-86.2-38.59-86.2-86.208 0-47.61 38.6-86.198 86.2-86.198z"/></svg>