<?xml version="1.0" encoding="utf-8"?>
<!-- Generator: Adobe Illustrator 13.0.0, SVG Export Plug-In . SVG Version: 6.00 Build 14948)  -->
<!DOCTYPE svg PUBLIC "-//W3C//DTD SVG 1.1//EN" "http://www.w3.org/Graphics/SVG/1.1/DTD/svg11.dtd">
<svg version="1.1" xmlns="http://www.w3.org/2000/svg" xmlns:xlink="http://www.w3.org/1999/xlink" x="0px" y="0px" width="512px"
	 height="512px" viewBox="0 0 512 512" enable-background="new 0 0 512 512" xml:space="preserve">
<g id="Calque_1">
</g>
<g id="icons">
	<path id="eye-5-icon_2_" stroke="#333333" stroke-miterlimit="10" d="M256.616,448C153.132,448,59.067,382.509,0,295.926
		c59.601-83.533,153.65-135.15,256.616-135.15c103.185,0,197.55,50.617,255.385,134.617C457.149,386.792,363.283,448,256.616,448z
		 M65.566,296.651c0,46.683,110.967,113.532,191.05,113.532c108.951,0,191.2-66.85,191.2-113.057
		c0-32.592-110.067-98.543-191.2-98.543C151.216,198.584,65.566,265.092,65.566,296.651z M258.866,218.186
		c47.616,0,86.201,38.591,86.201,86.198c0,47.617-38.585,86.208-86.201,86.208c-47.599,0-86.199-38.591-86.199-86.208
		C172.667,256.776,211.267,218.186,258.866,218.186z"/>
</g>
</svg>
