<?xml version="1.0" encoding="utf-8"?>
<!-- Generator: Adobe Illustrator 13.0.0, SVG Export Plug-In . SVG Version: 6.00 Build 14948)  -->
<!DOCTYPE svg PUBLIC "-//W3C//DTD SVG 1.1//EN" "http://www.w3.org/Graphics/SVG/1.1/DTD/svg11.dtd">
<svg version="1.1" xmlns="http://www.w3.org/2000/svg" xmlns:xlink="http://www.w3.org/1999/xlink" x="0px" y="0px" width="512px"
	 height="512px" viewBox="0 0 512 512" enable-background="new 0 0 512 512" xml:space="preserve">
<g id="Calque_1">
</g>
<g id="icons">
	<g id="file_1_">
		<path stroke="#333333" stroke-miterlimit="10" d="M391.685,142.848l-63.994-63.489L312.332,64H290.81H133.115
			c-15.36,0-28.159,12.798-28.159,28.165v327.67c0,15.366,12.799,28.165,28.159,28.165h245.788
			c15.342,0,28.142-12.799,28.142-28.165V179.198v-20.992L391.685,142.848z M313.359,103.4l58.892,58.906h-48.946
			c-5.575,0-9.945-4.385-9.945-9.945V103.4z M377.208,402.365c0,6.398-5.022,11.436-11.431,11.436H146.24
			c-6.408,0-11.446-5.037-11.446-11.436v-292.73c0-6.398,5.038-11.437,11.446-11.437h147.277v62.665
			c0,13.721,11.445,25.15,25.157,25.15h58.533V402.365z"/>
		<path stroke="#333333" stroke-miterlimit="10" d="M340.49,384.861H171.527c-4.108,0-7.68-6.343-7.68-13.597
			c0-7.248,3.571-13.591,7.68-13.591h168.441c4.092,0,7.679,6.343,7.679,13.591C347.647,378.519,344.583,384.861,340.49,384.861z"/>
		<path stroke="#333333" stroke-miterlimit="10" d="M340.49,334.824H171.527c-4.108,0-7.68-6.344-7.68-13.591
			s3.571-13.589,7.68-13.589h168.441c4.092,0,7.679,6.342,7.679,13.589S344.583,334.824,340.49,334.824z"/>
		<path stroke="#333333" stroke-miterlimit="10" d="M340.49,284.785H171.527c-4.108,0-7.68-6.334-7.68-13.582
			c0-7.254,3.571-13.598,7.68-13.598h168.441c4.092,0,7.679,6.344,7.679,13.598C347.647,278.451,344.583,284.785,340.49,284.785z"/>
		<path stroke="#333333" stroke-miterlimit="10" d="M340.49,234.756H171.527c-4.108,0-7.68-6.344-7.68-13.591
			c0-7.255,3.571-13.589,7.68-13.589h168.441c4.092,0,7.679,6.334,7.679,13.589C347.647,228.412,344.583,234.756,340.49,234.756z"/>
	</g>
</g>
</svg>
