<svg xmlns="http://www.w3.org/2000/svg" width="512" height="512" viewBox="0 0 512 512"><path d="M391.685 142.848l-63.993-63.49L312.332 64H133.116c-15.36 0-28.16 12.798-28.16 28.165v327.67c0 15.366 12.8 28.165 28.16 28.165h245.788c15.342 0 28.142-12.8 28.142-28.165v-261.63l-15.36-15.357zM313.36 103.4l58.89 58.906h-48.945c-5.574 0-9.944-4.385-9.944-9.945V103.4zm52.418 310.4H146.24c-6.408 0-11.446-5.034-11.446-11.434v-292.73c0-6.398 5.038-11.437 11.446-11.437h147.277v62.66c0 13.72 11.444 25.15 25.156 25.15h58.533v216.35c.002 6.393-5.02 11.43-11.428 11.43zm-25.288-28.94H171.527c-4.108 0-7.68-6.343-7.68-13.597 0-7.248 3.57-13.59 7.68-13.59h168.44c4.093 0 7.68 6.342 7.68 13.59 0 7.256-3.063 13.598-7.156 13.598zm0-50.036H171.527c-4.108 0-7.68-6.344-7.68-13.59s3.57-13.59 7.68-13.59h168.44c4.093 0 7.68 6.342 7.68 13.59s-3.064 13.59-7.157 13.59zm0-50.04H171.527c-4.108 0-7.68-6.333-7.68-13.58 0-7.255 3.57-13.6 7.68-13.6h168.44c4.093 0 7.68 6.345 7.68 13.6 0 7.247-3.064 13.58-7.157 13.58zm0-50.028H171.527c-4.108 0-7.68-6.344-7.68-13.59 0-7.256 3.57-13.59 7.68-13.59h168.44c4.093 0 7.68 6.334 7.68 13.59 0 7.246-3.064 13.59-7.157 13.59z"/></svg>