<?xml version="1.0" encoding="utf-8"?>
<!-- Generator: Adobe Illustrator 13.0.0, SVG Export Plug-In . SVG Version: 6.00 Build 14948)  -->
<!DOCTYPE svg PUBLIC "-//W3C//DTD SVG 1.1//EN" "http://www.w3.org/Graphics/SVG/1.1/DTD/svg11.dtd">
<svg version="1.1" xmlns="http://www.w3.org/2000/svg" xmlns:xlink="http://www.w3.org/1999/xlink" x="0px" y="0px" width="512px"
	 height="512px" viewBox="0 0 512 512" enable-background="new 0 0 512 512" xml:space="preserve">
<g id="Calque_1">
</g>
<g id="repères">
</g>
<g id="icons">
	<g id="home_1_">
		<path fill="#2D2D2D" stroke="#333333" stroke-miterlimit="10" d="M273.583,92.95l210.866,152.567L512,207.45L273.333,34.917
			c-10-10-26.217-10-36.217,0L-0.001,207.483l27.633,38L237.382,92.95C247.382,82.959,263.583,82.959,273.583,92.95z"/>
		<path fill="#2D2D2D" stroke="#333333" stroke-miterlimit="10" d="M306.349,337.109V448h131.467V259.209l-164.25-118.908
			c-10-10-26.217-10-36.217,0L73.116,259.209V448h131.434V336.992c0.066-14.133,11.583-25.551,25.716-25.482h50.483
			C294.899,311.51,306.349,322.967,306.349,337.109z"/>
	</g>
</g>
</svg>
