<svg xmlns="http://www.w3.org/2000/svg" width="511.999" height="512" viewBox="0 0 511.999 512"><path d="M126.026 410.817C107.52 394.74 84.114 388.14 61.71 390.49L38.135 512l117.01-40.342c-.82-22.526-10.606-44.774-29.12-60.84zM457.528 174.995c26.676-39.465 20.336-93.522-16.5-125.57l-.113-.1c-39.867-34.577-100.217-30.315-134.826 9.53-.216-.133-.43-.245-.644-.374L276.35 91.97 76.275 322.302l51.516-4.703L327.976 87.16l20.186-1.882 10.505 9.13-200.075 230.32 48.123 41.8L406.78 136.206l10.472 9.097.977 20.308-200.153 230.412 2.543 51.674 200.1-230.333v.01l36.808-42.378z"/></svg>