<svg xmlns="http://www.w3.org/2000/svg" width="512" height="512" viewBox="0 0 512 512"><path d="M46.218 123.123c-7.66.277-13.737 6.56-13.737 14.28v15.605h-3.9c-.24 0-.49-.01-.74 0-.12 0-.22-.01-.34 0-15.32.585-27.5 13.14-27.5 28.602v237.788C0 435.248 12.74 448 28.58 448h454.837c15.85 0 28.58-12.75 28.58-28.602V181.61c0-15.83-12.73-28.602-28.58-28.602H143.003v-15.604c0-7.906-6.36-14.28-14.286-14.28h-82.5zm358.457 49.762h72.028c3.614 0 6.53 2.895 6.53 6.487v35.676c0 3.613-2.916 6.52-6.53 6.52H405.25c-3.613 0-6.488-2.906-6.488-6.52v-35.676c0-3.408 2.566-6.2 5.913-6.487zm-151.367 23.652H256c57.383 0 103.955 46.6 103.955 103.977 0 57.39-46.572 103.957-103.956 103.957-57.4 0-103.94-46.56-103.94-103.95 0-56.48 45.1-102.56 101.24-103.97zm69.606 103.967c0 36.97-29.957 66.926-66.915 66.926s-66.92-29.957-66.92-66.926c0-36.947 29.95-66.926 66.91-66.926s66.91 29.98 66.91 66.926z" fill="#2D2D2D"/></svg>