<?xml version="1.0" encoding="utf-8"?>
<!-- Generator: Adobe Illustrator 13.0.0, SVG Export Plug-In . SVG Version: 6.00 Build 14948)  -->
<!DOCTYPE svg PUBLIC "-//W3C//DTD SVG 1.1//EN" "http://www.w3.org/Graphics/SVG/1.1/DTD/svg11.dtd">
<svg version="1.1" xmlns="http://www.w3.org/2000/svg" xmlns:xlink="http://www.w3.org/1999/xlink" x="0px" y="0px" width="512px"
	 height="512px" viewBox="0 0 512 512" enable-background="new 0 0 512 512" xml:space="preserve">
<g id="Calque_1">
</g>
<g id="repères">
</g>
<g id="icons">
	<g>
		<path sodipodi:nodetypes="ccccsscccccccccccccsccccccccccssssssc" fill="#2D2D2D" d="M46.218,123.123
			c-7.659,0.277-13.737,6.561-13.737,14.281v15.604H28.58c-0.247,0-0.493-0.011-0.739,0c-0.123,0-0.226-0.011-0.349,0
			c-15.317,0.585-27.493,13.141-27.493,28.602v237.788C-0.001,435.249,12.739,448,28.58,448h454.837
			c15.851,0,28.581-12.751,28.581-28.602V181.61c0-15.831-12.73-28.602-28.581-28.602H143.003v-15.604
			c0-7.906-6.361-14.281-14.286-14.281H46.792C46.603,123.123,46.402,123.123,46.218,123.123z M404.675,172.885
			c0.041,0,0.102,0,0.143,0c0.145,0,0.288,0,0.432,0h71.453c3.614,0,6.529,2.895,6.529,6.487v35.676
			c0,3.613-2.915,6.519-6.529,6.519H405.25c-3.613,0-6.488-2.905-6.488-6.519v-35.676
			C398.761,175.964,401.328,173.172,404.675,172.885z M253.308,196.537c0.227,0,0.453,0,0.678,0c0.227,0,0.451,0,0.673,0
			c0.437,0,0.883,0,1.34,0c57.384,0,103.956,46.599,103.956,103.977c0,57.389-46.572,103.957-103.956,103.957
			c-57.394,0-103.937-46.568-103.937-103.957C152.062,244.029,197.163,197.955,253.308,196.537z"/>
		
			<path sodipodi:rx="101.63772" sodipodi:ry="101.63772" sodipodi:cx="-102.90819" sodipodi:cy="243.93053" sodipodi:type="arc" fill="#2D2D2D" d="
			M322.914,300.504c0,36.969-29.957,66.926-66.915,66.926s-66.915-29.957-66.915-66.926c0-36.947,29.957-66.926,66.915-66.926
			S322.914,263.557,322.914,300.504z"/>
	</g>
</g>
</svg>
