<?xml version="1.0" encoding="utf-8"?>
<!-- Generator: Adobe Illustrator 13.0.0, SVG Export Plug-In . SVG Version: 6.00 Build 14948)  -->
<!DOCTYPE svg PUBLIC "-//W3C//DTD SVG 1.1//EN" "http://www.w3.org/Graphics/SVG/1.1/DTD/svg11.dtd">
<svg version="1.1" xmlns="http://www.w3.org/2000/svg" xmlns:xlink="http://www.w3.org/1999/xlink" x="0px" y="0px" width="512px"
	 height="512px" viewBox="0 0 512 512" enable-background="new 0 0 512 512" xml:space="preserve">
<g id="Calque_1">
</g>
<g id="icons">
	<g id="plus_1_">
		<path stroke="#333333" stroke-miterlimit="10" d="M290.124,477.874c0,18.851-15.25,34.126-34.124,34.126l0,0
			c-18.875,0-34.125-15.275-34.125-34.126V34.138C221.875,15.263,237.125,0,256,0l0,0c18.874,0,34.124,15.263,34.124,34.138V477.874
			z"/>
		<path stroke="#333333" stroke-miterlimit="10" d="M477.875,221.874c18.85,0,34.125,15.251,34.125,34.126l0,0
			c0,18.875-15.275,34.125-34.125,34.125H34.124c-18.849,0-34.125-15.25-34.125-34.125l0,0c0-18.875,15.275-34.126,34.125-34.126
			H477.875z"/>
	</g>
</g>
</svg>
