<?xml version="1.0" encoding="utf-8"?>
<!-- Generator: Adobe Illustrator 13.0.0, SVG Export Plug-In . SVG Version: 6.00 Build 14948)  -->
<!DOCTYPE svg PUBLIC "-//W3C//DTD SVG 1.1//EN" "http://www.w3.org/Graphics/SVG/1.1/DTD/svg11.dtd">
<svg version="1.1" xmlns="http://www.w3.org/2000/svg" xmlns:xlink="http://www.w3.org/1999/xlink" x="0px" y="0px" width="512px"
	 height="512px" viewBox="0 0 512 512" enable-background="new 0 0 512 512" xml:space="preserve">
<g id="Calque_1">
</g>
<g id="icons">
	<path id="star_1_" stroke="#333333" stroke-miterlimit="10" d="M371.687,448c-7.105,0-14.158-2.266-20.125-6.668l-97.387-71.933
		l-97.391,71.933c-6.001,4.402-13.071,6.668-20.158,6.668c-6.965,0-13.931-2.195-19.882-6.527
		c-11.968-8.654-16.94-24.09-12.249-38.105l38.289-114.871l-98.506-70.43c-12.025-8.628-17.063-23.976-12.515-38.045
		c4.552-13.975,17.554-23.416,32.219-23.416c0.069,0,0.193,0,0.264,0l121.083,0.98l36.557-115.447
		c4.409-14.079,17.499-23.66,32.252-23.66c14.754,0,27.879,9.582,32.271,23.66l36.54,115.447l121.011-0.98c0.07,0,0.246,0,0.3,0
		c14.612,0,27.737,9.441,32.165,23.416c4.585,14.069-0.402,29.417-12.442,38.045l-98.421,70.43l38.325,114.871
		c4.618,13.981-0.333,29.417-12.216,38.105C385.722,445.805,378.669,448,371.687,448L371.687,448z"/>
</g>
</svg>
