<svg xmlns="http://www.w3.org/2000/svg" width="512" height="512" viewBox="0 0 512 512"><path d="M371.688 448c-7.105 0-14.158-2.266-20.125-6.668l-97.388-71.934-97.39 71.934c-6.002 4.402-13.072 6.668-20.16 6.668-6.964 0-13.93-2.195-19.88-6.527-11.97-8.653-16.94-24.09-12.25-38.104l38.29-114.877-98.507-70.43c-12.025-8.628-17.063-23.976-12.515-38.045 4.552-13.975 17.554-23.416 32.22-23.416h.263l121.083.98L221.88 42.14c4.41-14.08 17.5-23.66 32.252-23.66 14.754 0 27.88 9.582 32.27 23.66l36.54 115.447 121.012-.98h.3c14.61 0 27.736 9.44 32.164 23.416 4.586 14.07-.4 29.417-12.44 38.045l-98.42 70.43 38.323 114.87c4.62 13.982-.332 29.418-12.215 38.105-5.948 4.332-13 6.527-19.982 6.527z"/></svg>