<?xml version="1.0" encoding="utf-8"?>
<!-- Generator: Adobe Illustrator 13.0.0, SVG Export Plug-In . SVG Version: 6.00 Build 14948)  -->
<!DOCTYPE svg PUBLIC "-//W3C//DTD SVG 1.1//EN" "http://www.w3.org/Graphics/SVG/1.1/DTD/svg11.dtd">
<svg version="1.1" xmlns="http://www.w3.org/2000/svg" xmlns:xlink="http://www.w3.org/1999/xlink" x="0px" y="0px" width="512px"
	 height="512px" viewBox="0 0 512 512" enable-background="new 0 0 512 512" xml:space="preserve">
<g id="Calque_1">
</g>
<g id="icons">
	<g>
		<g>
			<g opacity="0.7">
				<path stroke="#333333" stroke-miterlimit="10" d="M455.048,231.868c-3.801,24.591-25.366,57.89-48.767,58.032
					c-23.417,0.142-45.366-32.884-49.483-57.425c-4.916-29.259,16.466-63.476,48.733-63.675
					C437.765,168.601,459.598,202.551,455.048,231.868z"/>
				<path stroke="#333333" stroke-miterlimit="10" d="M511.999,364.108l-14.284-30.624c-5.266-9.992-34.016-21.051-60.883-26.609
					c-7.983,9.809-17.783,16.959-28.066,17.959c0,0.009,0,0.009,0,0.016l24.417,53.268c1.616,7.125,1.699,14.033,0.6,20.482
					l50.95-0.315C504.132,398.159,516.198,382.233,511.999,364.108z"/>
			</g>
			<g opacity="0.7">
				<path stroke="#333333" stroke-miterlimit="10" d="M58.617,231.868c3.799,24.591,25.365,57.89,48.767,58.032
					c23.415,0.142,45.366-32.884,49.482-57.425c4.917-29.259-16.467-63.476-48.733-63.675
					C75.9,168.601,54.066,202.551,58.617,231.868z"/>
				<path stroke="#333333" stroke-miterlimit="10" d="M1.666,364.108l14.283-30.624c5.268-9.992,34.018-21.051,60.884-26.609
					c7.983,9.809,17.782,16.959,28.066,17.959c0,0.009,0,0.009,0,0.016l-24.417,53.268c-1.617,7.125-1.699,14.033-0.6,20.482
					l-50.95-0.315C9.533,398.159-2.534,382.233,1.666,364.108z"/>
			</g>
			<g>
				<path stroke="#333333" stroke-miterlimit="10" d="M409.681,398.608l-20.434-44.601c-7.565-14.565-49.249-30.874-88.198-39.183
					c-12.535,15.201-28.084,26.101-44.217,26.101s-31.701-10.908-44.234-26.134c-39.648,8.467-81.599,25.191-88.166,39.216
					l-20.45,44.601C98.033,424.984,115.699,448,143.882,448h225.899C397.965,448,415.631,424.984,409.681,398.608z"/>
				<path stroke="#333333" stroke-miterlimit="10" d="M328.166,206.06c-5.751,35.667-37.333,83.841-71.333,83.841
					s-65.584-48.174-71.333-83.841c-6.884-42.542,24.499-92.034,71.333-92.034C303.682,114.025,335.048,163.518,328.166,206.06z"/>
			</g>
		</g>
	</g>
</g>
</svg>
