<svg xmlns="http://www.w3.org/2000/svg" width="512" height="512" viewBox="0 0 512 512"><path d="M455.048 231.868c-3.8 24.59-25.366 57.89-48.767 58.032-23.412.142-45.36-32.885-49.48-57.425-4.914-29.26 16.468-63.476 48.735-63.675 32.235-.2 54.068 33.75 49.518 63.068zM512 364.108l-14.285-30.624c-5.266-9.992-34.016-21.05-60.883-26.61-7.983 9.81-17.783 16.96-28.066 17.96v.016l24.417 53.27c1.616 7.124 1.7 14.03.6 20.48l50.95-.314c19.4-.127 31.465-16.054 27.266-34.18zM58.617 231.868c3.8 24.59 25.365 57.89 48.767 58.032 23.415.142 45.366-32.885 49.482-57.425 4.917-29.26-16.467-63.476-48.733-63.675-32.233-.2-54.067 33.75-49.516 63.068zm-56.95 132.24l14.282-30.624c5.263-9.992 34.013-21.05 60.88-26.61 7.982 9.81 17.78 16.96 28.065 17.96v.016L80.48 378.12c-1.617 7.124-1.7 14.03-.6 20.48l-50.95-.314c-19.4-.127-31.466-16.054-27.266-34.18z" opacity=".7"/><path d="M409.68 398.607l-20.433-44.6c-7.565-14.566-49.25-30.875-88.198-39.184-12.54 15.2-28.09 26.1-44.22 26.1s-31.7-10.906-44.236-26.133c-39.648 8.467-81.6 25.19-88.166 39.216l-20.45 44.6C98.032 424.986 115.7 448 143.882 448h225.9c28.183 0 45.85-23.016 39.9-49.393zM328.166 206.06c-5.75 35.667-37.333 83.84-71.333 83.84s-65.584-48.173-71.333-83.84c-6.884-42.542 24.5-92.034 71.333-92.034 46.85 0 78.215 49.492 71.333 92.034z"/></svg>