<?xml version="1.0" encoding="utf-8"?>
<!-- Generator: Adobe Illustrator 13.0.0, SVG Export Plug-In . SVG Version: 6.00 Build 14948)  -->
<!DOCTYPE svg PUBLIC "-//W3C//DTD SVG 1.1//EN" "http://www.w3.org/Graphics/SVG/1.1/DTD/svg11.dtd">
<svg version="1.1" xmlns="http://www.w3.org/2000/svg" xmlns:xlink="http://www.w3.org/1999/xlink" x="0px" y="0px" width="512px"
	 height="512px" viewBox="0 0 512 512" enable-background="new 0 0 512 512" xml:space="preserve">
<g id="Calque_1">
</g>
<g id="icons">
	<g>
		<path stroke="#333333" stroke-miterlimit="10" d="M445.172,394.992c13.951,13.951,13.977,36.553,0,50.517l0,0
			c-13.978,13.978-36.565,13.965-50.543,0.014L66.146,117.012c-13.978-13.979-14.005-36.565-0.027-50.541l0,0
			c13.979-13.965,36.564-13.965,50.542,0.011L445.172,394.992z"/>
		<path stroke="#333333" stroke-miterlimit="10" d="M394.657,66.471c13.95-13.954,36.538-13.978,50.516,0l0,0
			c13.977,13.976,13.951,36.577,0,50.527L116.661,445.509c-13.978,13.965-36.563,13.978-50.542,0.014l0,0
			c-13.978-13.978-13.95-36.579,0-50.53L394.657,66.471z"/>
	</g>
</g>
</svg>
